<svg xmlns="http://www.w3.org/2000/svg" viewBox="0 0 1024 1024" width="1024" height="1024">
  <path d="M 744.747 124.16 l 38.4 33.28 l 36.949 258.731 l 107.221 107.179 l 11.349 27.435 v 193.963 l -38.827 38.784 h -38.741 v 116.352 h -77.568 v -116.352 h -543.061 v 116.352 h -77.568 v -116.352 h -38.741 l -38.827 -38.827 v -193.877 l 11.349 -27.435 l 107.264 -107.221 l 36.949 -258.731 l 38.4 -33.28 h 465.493 Z M 768.555 474.325 h -513.109 l -92.544 92.501 v 139.093 h 698.197 v -139.093 l -92.544 -92.501 Z M 298.667 550.784 c 32.128 0 58.197 26.027 58.197 58.197 c 0 32.128 -26.027 58.155 -58.197 58.155 c -32.128 0 -58.197 -26.027 -58.197 -58.155 s 26.027 -58.197 58.197 -58.197 Z M 725.333 550.784 c 32.128 0 58.197 26.027 58.197 58.197 c 0 32.128 -26.027 58.155 -58.197 58.155 c -32.128 0 -58.197 -26.027 -58.197 -58.155 s 26.027 -58.197 58.197 -58.197 Z M 711.083 201.685 h -398.165 l -27.904 195.115 h 453.888 l -27.861 -195.072 Z" />
</svg>
